<svg xmlns="http://www.w3.org/2000/svg" xmlns:xlink="http://www.w3.org/1999/xlink" xml:space="preserve" version="1.1" style="shape-rendering:geometricPrecision;text-rendering:geometricPrecision;image-rendering:optimizeQuality;" viewBox="0 0 333 416.25" x="0px" y="0px" fill-rule="evenodd" clip-rule="evenodd"><defs><style type="text/css">
   
    .fil0 {fill:black}
   
  </style></defs><g><path class="fil0" d="M153 25c70,0 126,56 126,126 0,21 -5,41 -14,59 -10,6 -10,-7 -28,-7 -2,0 -4,13 -21,8 -9,-3 3,19 -26,11 -25,-8 -1,13 -36,2 -15,-4 -12,3 -29,3 -1,0 -34,-2 -22,1 0,2 36,-2 47,6 5,3 19,-3 29,4 18,13 18,-21 37,7 7,8 15,-7 25,-3 -23,22 -54,35 -88,35 -70,0 -127,-56 -127,-126 0,-3 1,-6 1,-9 6,2 14,-5 20,-2 9,3 27,5 35,1 11,-6 20,11 26,2 20,-27 19,6 38,-7 9,-7 24,-1 28,-4 12,-7 47,-4 48,-5 11,-4 -22,-2 -22,-2 -18,0 -14,-7 -30,-2 -35,10 -10,-10 -36,-3 -28,8 -16,-14 -26,-11 -16,5 -19,-8 -21,-8 -22,1 -17,23 -39,-5 -2,-2 -5,-2 -8,-1 20,-42 63,-70 113,-70zm-74 265c0,0 1,5 1,5 0,0 -4,0 -8,3 -5,3 -7,9 -6,10 0,2 2,-2 5,-2 3,0 3,3 4,3 1,-1 3,-4 6,-4 2,0 4,3 5,2 0,0 2,-2 4,-2 2,0 5,3 6,2 0,0 -2,-4 -1,-6 1,-2 3,-3 3,-4 1,0 -2,-3 -1,-5 1,-2 4,-4 5,-4 1,-1 -2,-2 -1,-5 1,-3 5,-4 3,-5 -1,0 -7,0 -11,4 -4,3 -5,7 -5,7 0,0 -4,-2 -4,-2 0,2 -3,4 -5,3zm-38 -49c0,0 -3,3 -3,3 0,0 -2,-4 -7,-5 -6,-2 -11,0 -12,1 -1,1 3,0 5,3 2,2 -1,5 0,5 1,0 4,0 6,2 2,2 0,5 1,6 1,0 3,0 5,2 1,1 0,5 1,6 1,0 3,-4 5,-4 2,-1 4,0 4,0 1,0 2,-3 4,-4 3,0 6,1 7,2 0,0 0,-3 3,-4 3,-1 6,1 5,0 0,-1 -4,-6 -9,-7 -5,-2 -9,0 -9,0 0,0 0,-5 0,-5 -2,1 -6,0 -6,-1zm251 -158c0,0 0,4 0,4 0,0 -3,-1 -7,2 -4,2 -6,6 -6,8 0,1 2,-2 4,-2 3,1 3,3 4,3 0,0 2,-2 5,-2 2,-1 3,2 4,2 0,0 2,-2 3,-1 2,0 4,3 5,2 1,0 -1,-3 0,-5 1,-2 3,-2 3,-3 1,0 -1,-3 0,-4 1,-2 4,-3 5,-3 0,-1 -2,-2 -1,-5 1,-2 4,-3 3,-3 -1,-1 -5,-1 -9,1 -4,3 -5,6 -5,6 -1,0 -4,-2 -4,-2 0,1 -3,3 -4,2zm6 41c0,0 -1,2 -1,2 0,0 -1,-2 -3,-3 -3,0 -5,0 -6,1 0,0 1,0 2,1 1,1 0,2 0,3 1,0 2,0 3,1 1,1 0,2 1,2 0,0 1,0 2,1 0,1 0,3 1,3 0,0 1,-1 2,-2 1,0 2,0 2,0 0,1 1,-1 2,-1 1,-1 2,0 3,0 0,0 0,-1 1,-2 2,0 3,1 3,0 0,0 -2,-2 -4,-3 -3,-1 -5,0 -5,0 0,0 0,-2 0,-2 0,0 -2,0 -3,-1z"/></g><text x="0" y="348" fill="#000000" font-size="5px" font-weight="bold" font-family="'Helvetica Neue', Helvetica, Arial-Unicode, Arial, Sans-serif">Created by Moreno</text><text x="0" y="353" fill="#000000" font-size="5px" font-weight="bold" font-family="'Helvetica Neue', Helvetica, Arial-Unicode, Arial, Sans-serif">from the Noun Project</text></svg>